<svg xmlns="http://www.w3.org/2000/svg" viewBox="0 0 48 60" x="0px" y="0px"><title>business 9 copy</title><g><path d="M40,8H36.83a3,3,0,0,0-5.66,0H28a1,1,0,0,0-1,1v4a1,1,0,0,0,1,1,1,1,0,0,1,0,2,1,1,0,0,0-1,1v4a1,1,0,0,0,1,1h3.17a3,3,0,0,0,5.66,0H40a1,1,0,0,0,1-1V9A1,1,0,0,0,40,8ZM39,20H36a1,1,0,0,0-1,1,1,1,0,0,1-2,0,1,1,0,0,0-1-1H29V17.83a3,3,0,0,0,0-5.66V10h3a1,1,0,0,0,1-1,1,1,0,0,1,2,0,1,1,0,0,0,1,1h3Z"/><path d="M35,30.17V27a1,1,0,0,0-1-1H30a1,1,0,0,0-1,1,1,1,0,0,1-2,0,1,1,0,0,0-1-1H22a1,1,0,0,0-1,1v3.17a3,3,0,0,0,0,5.66V39a1,1,0,0,0,1,1H34a1,1,0,0,0,1-1V35.83a3,3,0,0,0,0-5.66ZM34,34a1,1,0,0,0-1,1v3H23V35a1,1,0,0,0-1-1,1,1,0,0,1,0-2,1,1,0,0,0,1-1V28h2.17a3,3,0,0,0,5.66,0H33v3a1,1,0,0,0,1,1,1,1,0,0,1,0,2Z"/><path d="M22,26H18.83a3,3,0,0,0-5.66,0H10a1,1,0,0,0-1,1V39a1,1,0,0,0,1,1h3.17a3,3,0,0,0,5.66,0H22a1,1,0,0,0,1-1V35a1,1,0,0,0-1-1,1,1,0,0,1,0-2,1,1,0,0,0,1-1V27A1,1,0,0,0,22,26Zm-1,4.17a3,3,0,0,0,0,5.66V38H18a1,1,0,0,0-1,1,1,1,0,0,1-2,0,1,1,0,0,0-1-1H11V28h3a1,1,0,0,0,1-1,1,1,0,0,1,2,0,1,1,0,0,0,1,1h3Z"/><path d="M23,18.17V15a1,1,0,0,0-1-1H10a1,1,0,0,0-1,1v3.17a3,3,0,0,0,0,5.66V27a1,1,0,0,0,1,1h4a1,1,0,0,0,1-1,1,1,0,0,1,2,0,1,1,0,0,0,1,1h4a1,1,0,0,0,1-1V23.83a3,3,0,0,0,0-5.66ZM22,22a1,1,0,0,0-1,1v3H18.83a3,3,0,0,0-5.66,0H11V23a1,1,0,0,0-1-1,1,1,0,0,1,0-2,1,1,0,0,0,1-1V16H21v3a1,1,0,0,0,1,1,1,1,0,0,1,0,2Z"/></g><text x="0" y="63" fill="#000000" font-size="5px" font-weight="bold" font-family="'Helvetica Neue', Helvetica, Arial-Unicode, Arial, Sans-serif">Created by tezar tantular</text><text x="0" y="68" fill="#000000" font-size="5px" font-weight="bold" font-family="'Helvetica Neue', Helvetica, Arial-Unicode, Arial, Sans-serif">from the Noun Project</text></svg>