<?xml version="1.0" standalone="no"?>
<!DOCTYPE svg PUBLIC "-//W3C//DTD SVG 1.0//EN" "http://www.w3.org/TR/2001/REC-SVG-20010904/DTD/svg10.dtd">
<svg xmlns="http://www.w3.org/2000/svg" xmlns:xlink="http://www.w3.org/1999/xlink" id="body_1" width="5400" height="5400">

<g transform="matrix(5 0 0 5 0 0)">
	<g transform="matrix(1 0 0 1 540 540)">
	</g>
	<g transform="matrix(1 0 0 1 540 540)">
	</g>
	<g transform="matrix(5.72 0 0 5.72 584.11 386.77)">
        <path transform="matrix(1 0 0 1 -34 -15)"  d="M40 8L36.83 8C 36.40753 6.7990565 35.273087 5.99554 34 5.99554C 32.726913 5.99554 31.592468 6.7990565 31.17 8L31.17 8L28 8C 27.447716 8 27 8.447715 27 9L27 9L27 13C 27 13.552285 27.447716 14 28 14C 28.552284 14 29 14.447715 29 15C 29 15.552285 28.552284 16 28 16C 27.447716 16 27 16.447716 27 17L27 17L27 21C 27 21.552284 27.447716 22 28 22L28 22L31.17 22C 31.592468 23.200943 32.726913 24.00446 34 24.00446C 35.273087 24.00446 36.40753 23.200943 36.83 22L36.83 22L40 22C 40.552284 22 41 21.552284 41 21L41 21L41 9C 41 8.447715 40.552284 8 40 8zM39 20L36 20C 35.447716 20 35 20.447716 35 21C 35 21.552284 34.552284 22 34 22C 33.447716 22 33 21.552284 33 21C 33 20.447716 32.552284 20 32 20L32 20L29 20L29 17.83C 30.200943 17.407532 31.00446 16.273085 31.00446 15C 31.00446 13.726915 30.200943 12.592469 29 12.17L29 12.17L29 10L32 10C 32.552284 10 33 9.552285 33 9C 33 8.447715 33.447716 8 34 8C 34.552284 8 35 8.447715 35 9C 35 9.552285 35.447716 10 36 10L36 10L39 10z" stroke="none" fill="#000000" fill-rule="nonzero" />
	</g>
	<g transform="matrix(5.72 0 0 5.72 549.79 489.74)">
        <path transform="matrix(1 0 0 1 -28 -33)"  d="M35 30.17L35 27C 35 26.447716 34.552284 26 34 26L34 26L30 26C 29.447716 26 29 26.447716 29 27C 29 27.552284 28.552284 28 28 28C 27.447716 28 27 27.552284 27 27C 27 26.447716 26.552284 26 26 26L26 26L22 26C 21.447716 26 21 26.447716 21 27L21 27L21 30.17C 19.799057 30.592468 18.99554 31.726915 18.99554 33C 18.99554 34.273087 19.799057 35.40753 21 35.83L21 35.83L21 39C 21 39.552284 21.447716 40 22 40L22 40L34 40C 34.552284 40 35 39.552284 35 39L35 39L35 35.83C 36.200943 35.40753 37.00446 34.273087 37.00446 33C 37.00446 31.726915 36.200943 30.592468 35 30.17zM34 34C 33.447716 34 33 34.447716 33 35L33 35L33 38L23 38L23 35C 23 34.447716 22.552284 34 22 34C 21.447716 34 21 33.552284 21 33C 21 32.447716 21.447716 32 22 32C 22.552284 32 23 31.552284 23 31L23 31L23 28L25.17 28C 25.592468 29.200943 26.726915 30.00446 28 30.00446C 29.273085 30.00446 30.407532 29.200943 30.83 28L30.83 28L33 28L33 31C 33 31.552284 33.447716 32 34 32C 34.552284 32 35 32.447716 35 33C 35 33.552284 34.552284 34 34 34z" stroke="none" fill="#000000" fill-rule="nonzero" />
	</g>
	<g transform="matrix(5.72 0 0 5.72 481.14 489.74)">
        <path transform="matrix(1 0 0 1 -16 -33)"  d="M22 26L18.83 26C 18.407532 24.799057 17.273085 23.99554 16 23.99554C 14.726915 23.99554 13.592469 24.799057 13.17 26L13.17 26L10 26C 9.447715 26 9 26.447716 9 27L9 27L9 39C 9 39.552284 9.447715 40 10 40L10 40L13.17 40C 13.592469 41.200943 14.726915 42.00446 16 42.00446C 17.273085 42.00446 18.407532 41.200943 18.83 40L18.83 40L22 40C 22.552284 40 23 39.552284 23 39L23 39L23 35C 23 34.447716 22.552284 34 22 34C 21.447716 34 21 33.552284 21 33C 21 32.447716 21.447716 32 22 32C 22.552284 32 23 31.552284 23 31L23 31L23 27C 23 26.447716 22.552284 26 22 26zM21 30.17C 19.799057 30.592468 18.99554 31.726915 18.99554 33C 18.99554 34.273087 19.799057 35.40753 21 35.83L21 35.83L21 38L18 38C 17.447716 38 17 38.447716 17 39C 17 39.552284 16.552284 40 16 40C 15.447715 40 15 39.552284 15 39C 15 38.447716 14.552285 38 14 38L14 38L11 38L11 28L14 28C 14.552285 28 15 27.552284 15 27C 15 26.447716 15.447715 26 16 26C 16.552284 26 17 26.447716 17 27C 17 27.552284 17.447716 28 18 28L18 28L21 28z" stroke="none" fill="#000000" fill-rule="nonzero" />
	</g>
	<g transform="matrix(5.72 0 0 5.72 481.14 421.1)">
        <path transform="matrix(1 0 0 1 -16 -21)"  d="M23 18.17L23 15C 23 14.447715 22.552284 14 22 14L22 14L10 14C 9.447715 14 9 14.447715 9 15L9 15L9 18.17C 7.7990565 18.592468 6.99554 19.726915 6.99554 21C 6.99554 22.273085 7.7990565 23.407532 9 23.83L9 23.83L9 27C 9 27.552284 9.447715 28 10 28L10 28L14 28C 14.552285 28 15 27.552284 15 27C 15 26.447716 15.447715 26 16 26C 16.552284 26 17 26.447716 17 27C 17 27.552284 17.447716 28 18 28L18 28L22 28C 22.552284 28 23 27.552284 23 27L23 27L23 23.83C 24.200943 23.407532 25.00446 22.273085 25.00446 21C 25.00446 19.726915 24.200943 18.592468 23 18.17zM22 22C 21.447716 22 21 22.447716 21 23L21 23L21 26L18.83 26C 18.407532 24.799057 17.273085 23.99554 16 23.99554C 14.726915 23.99554 13.592469 24.799057 13.17 26L13.17 26L11 26L11 23C 11 22.447716 10.552285 22 10 22C 9.447715 22 9 21.552284 9 21C 9 20.447716 9.447715 20 10 20C 10.552285 20 11 19.552284 11 19L11 19L11 16L21 16L21 19C 21 19.552284 21.447716 20 22 20C 22.552284 20 23 20.447716 23 21C 23 21.552284 22.552284 22 22 22z" stroke="none" fill="#000000" fill-rule="nonzero" />
	</g>
</g>
</svg>